<?xml version="1.0" encoding="UTF-8"?>
<svg version="1.1" xmlns="http://www.w3.org/2000/svg" width="508" height="425">
<path d="M0 0 C167.64 0 335.28 0 508 0 C508 140.25 508 280.5 508 425 C340.36 425 172.72 425 0 425 C0 284.75 0 144.5 0 0 Z " fill="#FDFDFD" transform="translate(0,0)"/>
<path d="M0 0 C0.886875 0.66 1.77375 1.32 2.6875 2 C2.6875 2.33 2.6875 2.66 2.6875 3 C-3.5825 3.33 -9.8525 3.66 -16.3125 4 C-16.621875 5.753125 -16.93125 7.50625 -17.25 9.3125 C-19.62193026 20.45716755 -23.56884353 31.14658121 -27.25830078 41.90917969 C-28.14541274 44.5101147 -29.01655523 47.11479575 -29.87109375 49.7265625 C-30.08910645 50.39244385 -30.30711914 51.0583252 -30.53173828 51.74438477 C-31.06977257 53.39324952 -31.60718736 55.04231638 -32.14453125 56.69140625 C-33.05139908 59.2603596 -34.0188183 61.75507166 -35.05078125 64.2734375 C-38.21162503 72.09878465 -40.9095491 80.09547107 -43.6875 88.0625 C-44.24458268 89.65567205 -44.80187322 91.24877143 -45.359375 92.84179688 C-46.19143359 95.21937495 -47.02322358 97.59704374 -47.85379028 99.97514343 C-49.45464677 104.55740965 -51.06677536 109.13548571 -52.6887207 113.71032715 C-55.43796567 121.46765855 -58.1044233 129.24793916 -60.6875 137.0625 C-61.21923828 138.66448242 -61.21923828 138.66448242 -61.76171875 140.29882812 C-62.61340995 142.86541107 -63.46317765 145.43263219 -64.3125 148 C-58.0425 148 -51.7725 148 -45.3125 148 C-44.6525 145.03 -43.9925 142.06 -43.3125 139 C-42.54284663 136.49337557 -41.73138287 133.99921187 -40.87890625 131.51953125 C-40.64523346 130.8367511 -40.41156067 130.15397095 -40.17080688 129.45050049 C-39.41083292 127.23596916 -38.6432938 125.02415733 -37.875 122.8125 C-37.3382253 121.25645395 -36.80152389 119.70038261 -36.26489258 118.14428711 C-31.92890414 105.61161797 -27.38618271 93.15997672 -22.78515625 80.72265625 C-19.76212849 72.53909468 -16.88859305 64.30645452 -14.03271484 56.06347656 C-12.96087466 52.9925636 -11.8545449 49.93427579 -10.75 46.875 C-7.79208972 38.63229001 -5.05617551 30.31588248 -2.3125 22 C-1.6525 22 -0.9925 22 -0.3125 22 C0.00203125 20.94039062 0.3165625 19.88078125 0.640625 18.7890625 C1.07211446 17.40079208 1.50445044 16.01278456 1.9375 14.625 C2.14246094 13.92632812 2.34742188 13.22765625 2.55859375 12.5078125 C3.47536633 9.61858981 4.22160264 7.42262828 6.49609375 5.359375 C9.80258151 4.81713458 11.58887998 6.04798761 14.5 7.625 C15.55574219 8.18574219 16.61148438 8.74648437 17.69921875 9.32421875 C20.09076264 10.66535905 22.4572719 12.03427989 24.8125 13.4375 C25.76125 13.953125 26.71 14.46875 27.6875 15 C28.6775 14.505 28.6775 14.505 29.6875 14 C30.58597656 14.30421875 31.48445312 14.6084375 32.41015625 14.921875 C39.69705988 17.31899705 48.59162285 16.95661548 55.6875 14 C58.55428805 12.00917635 58.55428805 12.00917635 60.6875 10 C64.91547927 13.08290155 64.91547927 13.08290155 66.6875 15 C67.0625 17.8125 67.0625 17.8125 66.6875 20 C67.6775 19.67 68.6675 19.34 69.6875 19 C70.42806641 20.19109375 70.42806641 20.19109375 71.18359375 21.40625 C71.82425781 22.4271875 72.46492187 23.448125 73.125 24.5 C74.08212891 26.03140625 74.08212891 26.03140625 75.05859375 27.59375 C75.59613281 28.3878125 76.13367188 29.181875 76.6875 30 C77.0175 30 77.3475 30 77.6875 30 C78.3475 30 79.0075 30 79.6875 30 C79.79707031 30.54309814 79.90664063 31.08619629 80.01953125 31.64575195 C81.21283675 37.30849588 82.80414816 42.71925318 84.6875 48.1875 C84.94789063 48.95513672 85.20828125 49.72277344 85.4765625 50.51367188 C86.57572068 53.75285774 87.68348355 56.98846846 88.80859375 60.21875 C91.24222321 67.91983523 91.89928303 76.04186335 92.5 84.0625 C92.59776733 85.17008667 92.59776733 85.17008667 92.69750977 86.30004883 C93.03359616 91.5719086 93.03359616 91.5719086 91.26953125 93.75390625 C90.48642578 94.37072266 90.48642578 94.37072266 89.6875 95 C88.94225719 96.86316421 88.94225719 96.86316421 88.5625 98.875 C88.41554688 99.53242188 88.26859375 100.18984375 88.1171875 100.8671875 C87.8188745 102.34790475 87.53024709 103.83059324 87.24926758 105.31469727 C83.68427304 122.35571199 77.88919009 137.9349216 67.32421875 151.8203125 C65.66689011 153.89167863 65.66689011 153.89167863 64.6875 156 C66.3375 156 67.9875 156 69.6875 156 C68.03734802 160.18105994 65.0006065 163.07100473 61.875 166.1875 C61.29967529 166.76121338 60.72435059 167.33492676 60.1315918 167.92602539 C54.45701263 173.4432131 48.37644271 177.78082075 41.6875 182 C40.84703125 182.55171875 40.0065625 183.1034375 39.140625 183.671875 C12.45789447 200.58837736 -22.99952578 206.05994936 -53.67138672 199.49511719 C-78.39146887 193.78934578 -98.85800571 182.43610247 -117.3125 165 C-118.00085938 164.36449219 -118.68921875 163.72898437 -119.3984375 163.07421875 C-141.65120822 141.83293761 -153.12633409 112.76682601 -154.42236328 82.42822266 C-154.4472583 81.23592041 -154.4472583 81.23592041 -154.47265625 80.01953125 C-154.49175049 79.26124023 -154.51084473 78.50294922 -154.53051758 77.72167969 C-154.56028848 75.71180289 -154.53996345 73.70135617 -154.515625 71.69140625 C-155.40017331 67.59386627 -155.85910774 67.37747078 -158.83203125 64.80859375 C-164.10190368 59.28978795 -163.06473813 52.23695262 -162.92773438 45.078125 C-162.86925961 43.21872562 -162.81000514 41.35935062 -162.75 39.5 C-162.71485151 37.60943258 -162.68291872 35.71880249 -162.65429688 33.828125 C-162.58349571 29.21593479 -162.44653498 24.61250549 -162.3125 20 C-151.7525 20 -141.1925 20 -130.3125 20 C-130.6425 22.31 -130.9725 24.62 -131.3125 27 C-126.47924212 30.78020169 -122.33576271 32.91158842 -116.11328125 32.640625 C-111.27140034 31.53313759 -107.22907932 29.04475941 -103 26.53125 C-100.3125 25 -100.3125 25 -98.3125 25 C-98.3125 24.34 -98.3125 23.68 -98.3125 23 C-93.85696424 19.54468655 -89.23394243 16.73413469 -84.3125 14 C-81.49794964 12.35245832 -78.88275311 10.68426759 -76.25 8.75 C-73.3125 7 -73.3125 7 -70.9375 7.25 C-70.40125 7.4975 -69.865 7.745 -69.3125 8 C-68.6525 7.01 -67.9925 6.02 -67.3125 5 C-65.59521484 4.23217773 -65.59521484 4.23217773 -63.5234375 3.68359375 C-62.75507568 3.47758545 -61.98671387 3.27157715 -61.19506836 3.05932617 C-60.3675708 2.85412354 -59.54007324 2.6489209 -58.6875 2.4375 C-57.4046814 2.1132605 -57.4046814 2.1132605 -56.09594727 1.7824707 C-44.23237499 -1.11159365 -32.61911991 -2.27153032 -20.42553711 -2.01489258 C-2.76304725 -1.66825494 -2.76304725 -1.66825494 0 0 Z " fill="#A06648" transform="translate(285.3125,118)"/>
<path d="M0 0 C11.55192398 -0.31481502 22.70525249 1.27044834 34.08203125 3.16015625 C34.08203125 3.82015625 34.08203125 4.48015625 34.08203125 5.16015625 C34.63890625 5.22074219 35.19578125 5.28132813 35.76953125 5.34375 C40.87996582 5.9048619 45.98202678 6.51106477 51.08203125 7.16015625 C51.08203125 7.82015625 51.08203125 8.48015625 51.08203125 9.16015625 C52.07203125 9.07765625 53.06203125 8.99515625 54.08203125 8.91015625 C58.05625719 8.89413115 60.65483363 10.24908256 64.08203125 12.13671875 C66.99325591 13.626447 69.91653639 14.36878254 73.08203125 15.16015625 C73.08203125 15.82015625 73.08203125 16.48015625 73.08203125 17.16015625 C73.70207031 17.27230469 74.32210937 17.38445313 74.9609375 17.5 C94.15451124 21.77455136 110.23016186 36.9544382 124.08203125 50.16015625 C125.22285156 51.23910156 125.22285156 51.23910156 126.38671875 52.33984375 C129.93204304 55.77126204 129.93204304 55.77126204 131.08203125 57.16015625 C131.08203125 57.82015625 131.08203125 58.48015625 131.08203125 59.16015625 C132.07203125 59.49015625 133.06203125 59.82015625 134.08203125 60.16015625 C135.3972168 61.61206055 135.3972168 61.61206055 136.71875 63.484375 C137.20988281 64.17668213 137.70101563 64.86898926 138.20703125 65.58227539 C138.98046875 66.70363892 138.98046875 66.70363892 139.76953125 67.84765625 C140.30191406 68.61134521 140.83429688 69.37503418 141.3828125 70.16186523 C146.04980441 76.94323558 150.19827484 83.902918 154.08203125 91.16015625 C154.67564453 92.24296875 154.67564453 92.24296875 155.28125 93.34765625 C167.83220697 117.15974853 171.62677555 143.53399026 171.11914062 170.11230469 C171.08520888 171.98480112 171.07460225 173.85768283 171.06640625 175.73046875 C170.00143952 209.73333499 153.15860643 245.29845162 130.19140625 269.89453125 C127.52018586 272.76361982 125.00600903 275.75464146 122.4921875 278.76171875 C121.08203125 280.16015625 121.08203125 280.16015625 119.08203125 280.16015625 C119.08203125 280.82015625 119.08203125 281.48015625 119.08203125 282.16015625 C116.99422779 283.97419873 114.90154657 285.67121624 112.70703125 287.34765625 C112.06290283 287.84450928 111.41877441 288.3413623 110.75512695 288.85327148 C108.87115146 290.29849043 106.97888629 291.73189911 105.08203125 293.16015625 C104.23769531 293.79695313 103.39335937 294.43375 102.5234375 295.08984375 C100.08589434 296.85568957 97.60617384 298.5201766 95.08203125 300.16015625 C94.52837891 300.52431641 93.97472656 300.88847656 93.40429688 301.26367188 C54.61900797 326.44731855 7.47940912 333.33163394 -37.3515625 324.28125 C-75.68656555 316.10777327 -111.13995608 294.57952088 -135.66796875 263.9609375 C-137.05914643 262.22921112 -138.47188933 260.5142762 -139.91796875 258.828125 C-154.90280825 241.09405083 -163.75320036 219.557373 -168.91796875 197.16015625 C-166.00074327 197.07912221 -163.08577359 197.01964544 -160.16796875 196.97265625 C-159.34296875 196.94751953 -158.51796875 196.92238281 -157.66796875 196.89648438 C-152.95687168 196.8394953 -150.56092067 196.96166034 -146.91796875 200.16015625 C-144.05223782 200.97827877 -144.05223782 200.97827877 -140.98046875 201.53515625 C-135.84245124 202.77601242 -132.97682447 203.61821897 -129.91796875 208.16015625 C-128.59124684 211.07108886 -127.39040763 214.0130887 -126.21484375 216.98828125 C-118.15898078 236.69117501 -103.07001432 254.70652581 -85.91796875 267.16015625 C-84.80808594 268.0109375 -84.80808594 268.0109375 -83.67578125 268.87890625 C-71.35886173 278.00255034 -57.38892178 284.32084404 -42.91796875 289.16015625 C-42.03625 289.46566406 -41.15453125 289.77117187 -40.24609375 290.0859375 C-3.51119036 301.49247597 35.24783575 293.89946661 68.76953125 276.91015625 C96.41357992 261.36914919 116.30161356 237.31085988 128.08203125 208.16015625 C128.56027344 206.99871094 129.03851563 205.83726562 129.53125 204.640625 C140.33732285 175.72707872 138.5151568 141.27206319 126.20654297 113.16064453 C111.78678795 81.60480285 86.34095347 55.65854669 53.56738281 43.20458984 C50.83209467 42.22034183 48.0876266 41.27348183 45.33203125 40.34765625 C44.46916504 40.05761719 43.60629883 39.76757812 42.71728516 39.46875 C17.16548856 31.19381263 -10.17176899 32.7449902 -35.91796875 39.16015625 C-35.91796875 42.13015625 -35.91796875 45.10015625 -35.91796875 48.16015625 C-38.9133645 49.83554709 -41.91333751 51.50143517 -44.91796875 53.16015625 C-46.02398437 53.77246094 -47.13 54.38476562 -48.26953125 55.015625 C-49.41164063 55.64082031 -50.55375 56.26601562 -51.73046875 56.91015625 C-52.80941406 57.503125 -53.88835937 58.09609375 -55 58.70703125 C-59.45374178 60.92495888 -59.45374178 60.92495888 -61.91796875 61.16015625 C-63.40296875 60.17015625 -63.40296875 60.17015625 -64.91796875 59.16015625 C-66.90766825 58.77001909 -68.90816744 58.42812976 -70.91796875 58.16015625 C-72.82072924 32.52744431 -72.82072924 32.52744431 -68.78515625 27.76171875 C-65.9030551 25.73060011 -63.20042087 24.42857117 -59.91796875 23.16015625 C-58.47276873 22.21347471 -57.03461793 21.25589909 -55.60546875 20.28515625 C-49.11160384 16.78483342 -41.20390825 16.16015625 -33.91796875 16.16015625 C-33.58796875 12.20015625 -33.25796875 8.24015625 -32.91796875 4.16015625 C-21.88391157 1.70299226 -11.30870846 0.46227024 0 0 Z " fill="#1F4170" transform="translate(258.91796875,35.83984375)"/>
<path d="M0 0 C5.24674243 1.41803849 9.70527245 3.92452238 14.4140625 6.5625 C15.26742187 7.036875 16.12078125 7.51125 17 8 C17.72960937 8.4125 18.45921875 8.825 19.2109375 9.25 C19.80132812 9.4975 20.39171875 9.745 21 10 C21.66 9.67 22.32 9.34 23 9 C23.89847656 9.30421875 24.79695313 9.6084375 25.72265625 9.921875 C33.00955988 12.31899705 41.90412285 11.95661548 49 9 C51.86678805 7.00917635 51.86678805 7.00917635 54 5 C58.22797927 8.08290155 58.22797927 8.08290155 60 10 C60.375 12.8125 60.375 12.8125 60 15 C60.99 14.67 61.98 14.34 63 14 C63.49371094 14.7940625 63.98742187 15.588125 64.49609375 16.40625 C65.13675781 17.4271875 65.77742188 18.448125 66.4375 19.5 C67.07558594 20.5209375 67.71367187 21.541875 68.37109375 22.59375 C68.90863281 23.3878125 69.44617188 24.181875 70 25 C70.33 25 70.66 25 71 25 C71.66 25 72.32 25 73 25 C73.16435547 25.81464722 73.16435547 25.81464722 73.33203125 26.64575195 C74.52533675 32.30849588 76.11664816 37.71925318 78 43.1875 C78.26039063 43.95513672 78.52078125 44.72277344 78.7890625 45.51367188 C79.88822068 48.75285774 80.99598355 51.98846846 82.12109375 55.21875 C84.55472321 62.91983523 85.21178303 71.04186335 85.8125 79.0625 C85.91026733 80.17008667 85.91026733 80.17008667 86.01000977 81.30004883 C86.34609616 86.5719086 86.34609616 86.5719086 84.58203125 88.75390625 C84.05996094 89.16511719 83.53789062 89.57632813 83 90 C82.25475719 91.86316421 82.25475719 91.86316421 81.875 93.875 C81.72804688 94.53242188 81.58109375 95.18984375 81.4296875 95.8671875 C81.1313745 97.34790475 80.84274709 98.83059324 80.56176758 100.31469727 C76.99677304 117.35571199 71.20169009 132.9349216 60.63671875 146.8203125 C58.97939011 148.89167863 58.97939011 148.89167863 58 151 C59.65 151 61.3 151 63 151 C61.34984802 155.18105994 58.3131065 158.07100473 55.1875 161.1875 C54.61217529 161.76121338 54.03685059 162.33492676 53.4440918 162.92602539 C47.76951263 168.4432131 41.68894271 172.78082075 35 177 C34.15953125 177.55171875 33.3190625 178.1034375 32.453125 178.671875 C21.94888557 185.33142549 8.67126928 192 -4 192 C-4 191.34 -4 190.68 -4 190 C-4.99 190 -5.98 190 -7 190 C-7.04898438 188.90300781 -7.09796875 187.80601562 -7.1484375 186.67578125 C-7.22350591 185.22133075 -7.29905197 183.76690484 -7.375 182.3125 C-7.4059375 181.59126953 -7.436875 180.87003906 -7.46875 180.12695312 C-7.69537442 175.99105745 -8.28225709 172.82336326 -10 169 C-10.125 166.1875 -10.125 166.1875 -10 164 C-11.65 163.67 -13.3 163.34 -15 163 C-15.99 157.06 -15.99 157.06 -17 151 C-17 151.99 -17 152.98 -17 154 C-18 156.1875 -18 156.1875 -19 158 C-26.90707856 150.34527501 -33.31936315 141.44531242 -39.125 132.125 C-39.51526367 131.51930176 -39.90552734 130.91360352 -40.30761719 130.28955078 C-42.92423154 125.95348094 -43.31896595 122.99404821 -43 118 C-42.09790039 114.76196289 -42.09790039 114.76196289 -40.84765625 111.47265625 C-40.40099609 110.26802734 -39.95433594 109.06339844 -39.49414062 107.82226562 C-39.01799442 106.56860452 -38.54077294 105.3153513 -38.0625 104.0625 C-37.1262816 101.59864952 -36.20298656 99.13103468 -35.28515625 96.66015625 C-34.87144775 95.57355713 -34.45773926 94.48695801 -34.03149414 93.36743164 C-33.07053952 90.2302844 -32.6639788 87.30190317 -32.31687927 84.05018616 C-31.76458717 80.47689589 -30.45625736 77.21496196 -29.15625 73.85546875 C-28.87089386 73.09544052 -28.58553772 72.33541229 -28.29153442 71.55235291 C-27.68240303 69.9312814 -27.06961133 68.31158124 -26.45343018 66.69317627 C-24.84277058 62.46025852 -23.2607133 58.21671497 -21.6796875 53.97265625 C-21.36430023 53.12717224 -21.04891296 52.28168823 -20.72396851 51.4105835 C-16.50420561 40.0452458 -12.71609997 28.53883587 -9 17 C-8.34 17 -7.68 17 -7 17 C-6.66226563 15.94039062 -6.32453125 14.88078125 -5.9765625 13.7890625 C-5.52636008 12.40093836 -5.07582175 11.01292313 -4.625 9.625 C-4.29242188 8.57699219 -4.29242188 8.57699219 -3.953125 7.5078125 C-2.2265625 2.2265625 -2.2265625 2.2265625 0 0 Z " fill="#23729E" transform="translate(292,123)"/>
<path d="M0 0 C1.175625 0.12375 2.35125 0.2475 3.5625 0.375 C8.31532414 0.93716199 12.52787552 2.33579441 17 4 C18.55654297 4.57814453 18.55654297 4.57814453 20.14453125 5.16796875 C26.52406835 7.58164693 32.80896714 10.13644733 39 13 C39 13.66 39 14.32 39 15 C39.99 15 40.98 15 42 15 C42 15.66 42 16.32 42 17 C42.886875 17.2475 43.77375 17.495 44.6875 17.75 C48.13156256 19.04964625 50.33024803 20.48729227 53 23 C53 23.66 53 24.32 53 25 C53.7425 25.2475 54.485 25.495 55.25 25.75 C58.23023087 27.10465039 59.89919252 28.5101541 62 31 C62 31.66 62 32.32 62 33 C62.556875 33.2475 63.11375 33.495 63.6875 33.75 C69.57043432 36.9299645 73.06480899 41.37687737 76.8125 46.75 C77.33658447 47.50079834 77.86066895 48.25159668 78.40063477 49.02514648 C93.40151392 70.98915806 100.39584922 96.37417616 99 123 C98.95359375 124.24330078 98.95359375 124.24330078 98.90625 125.51171875 C98.41976958 132.86973512 96.45408541 139.96131902 94.52636719 147.04980469 C94.05352493 148.80168965 93.60708349 150.56064971 93.1640625 152.3203125 C89.15741218 166.98685817 80.9330807 179.85692341 72 192 C70.02 191.67 68.04 191.34 66 191 C67.56111589 187.69136633 69.4421325 184.68885462 71.4375 181.625 C77.66847534 171.86657168 81.22534698 161.608988 84.6875 150.625 C84.90196777 149.94711426 85.11643555 149.26922852 85.33740234 148.57080078 C86.42577718 145.0676757 87.34504847 141.6084122 88 138 C88.30027271 136.62227813 88.61199134 135.24697863 88.9375 133.875 C89.09089844 133.21242187 89.24429688 132.54984375 89.40234375 131.8671875 C90 130 90 130 92 127 C92.66 127 93.32 127 94 127 C91.82436269 104.44117297 91.82436269 104.44117297 85 83 C82.49067444 76.85943199 80.40568341 71.68606159 81 65 C80.34 66.98 79.68 68.96 79 71 C78.67 71 78.34 71 78 71 C77.79375 69.845 77.5875 68.69 77.375 67.5 C76.1537685 62.54427798 73.55891579 58.63628352 70 55 C69.34 55 68.68 55 68 55 C67.773125 54.071875 67.54625 53.14375 67.3125 52.1875 C65.7911563 48.49280817 64.53647504 47.67517239 61 46 C59.6696875 47.2065625 59.6696875 47.2065625 58.3125 48.4375 C53.24781843 53.0310484 46.63616633 52.20114062 40.17578125 52.171875 C36.45772187 51.97065161 33.50990317 51.16996772 30 50 C29.01 50.495 29.01 50.495 28 51 C25.49416709 49.60622312 23.09800364 48.16919299 20.6875 46.625 C14.7801753 42.7454791 14.7801753 42.7454791 8 41 C7.18167278 42.89332534 6.37057732 44.78977733 5.5625 46.6875 C4.88380859 48.27111328 4.88380859 48.27111328 4.19140625 49.88671875 C3.14552545 52.61972529 2.46479252 55.12042337 2 58 C1.01 57.67 0.02 57.34 -1 57 C-1.39638672 58.92005859 -1.39638672 58.92005859 -1.80078125 60.87890625 C-2.9453438 66.01589556 -4.50061083 70.95595663 -6.1875 75.9375 C-6.65095825 77.31808594 -6.65095825 77.31808594 -7.1237793 78.7265625 C-9.29305191 85.11163288 -11.67194664 91.38646435 -14.16943359 97.64868164 C-17.41327079 105.87710301 -20.23272988 114.24857349 -23.09033203 122.6171875 C-26.04874825 131.27225935 -29.08972246 139.89354783 -32.1875 148.5 C-36.30234362 159.94573913 -40.20327899 171.44476214 -44 183 C-50.27 183 -56.54 183 -63 183 C-62.22926382 177.60484671 -61.19203335 173.19596514 -59.33203125 168.18359375 C-58.78570847 166.67441107 -58.2396559 165.16513056 -57.69384766 163.65576172 C-57.41285217 162.88544617 -57.13185669 162.11513062 -56.84234619 161.32147217 C-55.49593411 157.61081471 -54.19238941 153.88530147 -52.88671875 150.16015625 C-52.35999696 148.6623065 -51.83314008 147.16450425 -51.30615234 145.66674805 C-50.76657265 144.13200886 -50.22702242 142.59725932 -49.6875 141.0625 C-49.40819641 140.26816559 -49.12889282 139.47383118 -48.84112549 138.65542603 C-44.79259012 127.13879549 -40.76995073 115.613792 -36.8034668 104.06860352 C-35.1763668 99.3432124 -33.50999799 94.64164712 -31.73730469 89.96899414 C-29.34131746 83.57043885 -27.14867555 77.09438443 -24.9140625 70.63818359 C-24.32017994 68.9241091 -23.72395684 67.21084312 -23.125 65.49853516 C-20.28272428 57.35824434 -17.53802132 49.44602156 -16.32421875 40.87109375 C-16 39 -16 39 -15 38 C-12.14122091 37.76298761 -9.30116703 37.57780818 -6.4375 37.4375 C-5.63119141 37.39431641 -4.82488281 37.35113281 -3.99414062 37.30664062 C-1.99631195 37.20024738 0.0018207 37.09959112 2 37 C-2.15536316 33.62866763 -4.53692002 32.54605303 -10.08203125 33.00390625 C-10.79746094 33.08511719 -11.51289063 33.16632813 -12.25 33.25 C-13.67156808 33.38351744 -15.09345389 33.5136917 -16.515625 33.640625 C-17.24233398 33.70862305 -17.96904297 33.77662109 -18.71777344 33.84667969 C-21.12556039 34.00843516 -23.49364096 34.00374276 -25.90625 33.96875 C-31.10533673 33.93071278 -36.11247671 34.48952557 -41.25 35.25 C-42.60992065 35.44916016 -42.60992065 35.44916016 -43.99731445 35.65234375 C-51.4301643 36.80041656 -59.03818408 38.06416445 -66 41 C-66.66 41.99 -67.32 42.98 -68 44 C-68.53625 43.7525 -69.0725 43.505 -69.625 43.25 C-73.30911365 42.86219856 -75.06240013 44.86880009 -78 47 C-79.66520483 47.92867193 -81.33043187 48.85730433 -82.99609375 49.78515625 C-86.42118671 51.86157713 -89.62824262 54.25121514 -92.86328125 56.609375 C-95 58 -95 58 -97 58 C-97 58.66 -97 59.32 -97 60 C-112.53715338 69.28085962 -112.53715338 69.28085962 -119.703125 68.6796875 C-124.05235828 67.39266949 -127.51182087 64.83098596 -131 62 C-130.80734641 50.24813106 -123.88897833 42.54815105 -116.11328125 34.2890625 C-113.9603872 32.03254462 -113.9603872 32.03254462 -112.12109375 29.51171875 C-109.64706412 26.58206672 -106.84185022 24.41022965 -103.75 22.1875 C-103.19570312 21.78080078 -102.64140625 21.37410156 -102.0703125 20.95507812 C-100.71789547 19.96408289 -99.35955093 18.98118534 -98 18 C-97.38125 18.33 -96.7625 18.66 -96.125 19 C-93.09736784 20.42476807 -92.23509555 20.07836518 -89 19 C-88.67 17.02 -88.34 15.04 -88 13 C-87.2783667 12.88591797 -86.5567334 12.77183594 -85.81323242 12.65429688 C-82.86860132 11.96943951 -80.64976687 10.95315704 -77.98828125 9.53125 C-77.06595703 9.04269531 -76.14363281 8.55414063 -75.19335938 8.05078125 C-74.24267578 7.53902344 -73.29199219 7.02726562 -72.3125 6.5 C-71.35021484 5.98824219 -70.38792969 5.47648437 -69.39648438 4.94921875 C-67.62122828 4.00490709 -65.847392 3.05791802 -64.07543945 2.10742188 C-62.72614621 1.3874602 -61.36789973 0.68394986 -60 0 C-60 0.66 -60 1.32 -60 2 C-58.89269531 1.71125 -57.78539062 1.4225 -56.64453125 1.125 C-41.31317185 -2.55419849 -14.71641917 -7.35820959 0 0 Z " fill="#85D1DA" transform="translate(284,83)"/>
<path d="M0 0 C7.14137545 2.53847607 12.73288767 10.43481632 17.5 16.0625 C26.80082069 26.77124309 38.26256638 34.22263984 50 42 C49.51283289 46.22131502 47.30161948 47.8181717 44.171875 50.515625 C38.42924683 55.59283928 32.98226894 60.92451215 27.578125 66.359375 C26.74220825 67.19867554 25.9062915 68.03797607 25.04504395 68.90270996 C22.44464068 71.51644041 19.8468981 74.13278718 17.25 76.75 C13.79984407 80.22692602 10.34626021 83.7003956 6.890625 87.171875 C5.72941132 88.34553619 5.72941132 88.34553619 4.54473877 89.54290771 C0.4215591 93.68445594 -3.77732698 97.64905351 -8.23907471 101.42510986 C-10.06585682 103.0588993 -11.68332076 104.79594055 -13.3125 106.625 C-20.11889172 113.57221362 -29.60396479 116.07026405 -39.0625 116.375 C-48.41557902 116.29026089 -56.80641552 113.01657452 -63.609375 106.52734375 C-70.52593958 98.93077985 -72.58165804 91.26101915 -72.26953125 81.23828125 C-71.47910808 71.74174776 -68.38801017 66.33345624 -61.65673828 59.64648438 C-59.63811224 57.64035204 -57.64650448 55.60857424 -55.65234375 53.578125 C-42.42375624 40.18497913 -42.42375624 40.18497913 -36.70751953 35.49316406 C-34.35689833 33.43763086 -32.19459072 31.22132745 -30 29 C-28.96497322 27.95893832 -27.92955159 26.9182691 -26.89379883 25.87792969 C-26.34005081 25.32095398 -25.7863028 24.76397827 -25.21577454 24.19012451 C-22.73560005 21.69654437 -20.25274311 19.2056422 -17.76977539 16.71484375 C-16.45866895 15.39866754 -15.14845542 14.0816013 -13.83911133 12.76367188 C-11.94325097 10.85573296 -10.04422383 8.95099731 -8.14453125 7.046875 C-7.55807327 6.45525574 -6.9716153 5.86363647 -6.36738586 5.25408936 C-2.22774193 1.11387096 -2.22774193 1.11387096 0 0 Z " fill="#092B5E" transform="translate(113,302)"/>
<path d="M0 0 C0.33 0 0.66 0 1 0 C1.06469482 0.77375977 1.12938965 1.54751953 1.19604492 2.34472656 C2.34901118 28.2380106 2.34901118 28.2380106 11 52 C12.5159375 51.505 12.5159375 51.505 14.0625 51 C20.80225939 49.13609861 25.80595177 49.85524429 32.04296875 52.8515625 C34.39579041 54.23226024 35.77544336 55.55088672 37 58 C37 58.66 37 59.32 37 60 C37.99 60.33 38.98 60.66 40 61 C41.32421875 62.78515625 41.32421875 62.78515625 42.6875 65.0625 C45.46841768 69.44752384 48.6627618 72.8503129 52.4609375 76.37109375 C54 78 54 78 54 80 C54.58394531 80.26425781 55.16789062 80.52851563 55.76953125 80.80078125 C58.08541027 82.04592111 59.75234379 83.41462104 61.6875 85.1875 C64.39156688 87.60484681 67.12169046 89.91811257 70 92.125 C71.66786181 93.41512307 73.33430481 94.70708079 75 96 C75.61004883 96.47244141 76.22009766 96.94488281 76.84863281 97.43164062 C97.57592881 113.5716666 97.57592881 113.5716666 99 123 C99.66 123 100.32 123 101 123 C101 124.65 101 126.3 101 128 C101.66 127.67 102.32 127.34 103 127 C106.0625 126.875 106.0625 126.875 109 127 C109.33 127.33 109.66 127.66 110 128 C112.52596259 128.23653523 115.03107207 128.42173692 117.5625 128.5625 C118.27341797 128.60568359 118.98433594 128.64886719 119.71679688 128.69335938 C121.47761912 128.79971777 123.2387832 128.90038846 125 129 C125 130.32 125 131.64 125 133 C126.65 133.33 128.3 133.66 130 134 C130 134.33 130 134.66 130 135 C92.29044609 135.9026223 59.5963094 124.07343614 32 98 C31.31164062 97.36449219 30.62328125 96.72898437 29.9140625 96.07421875 C7.02268805 74.22336132 -4.4267358 44.17350917 -5.18359375 12.9609375 C-5.21345601 9.30398914 -5.14321174 5.65455137 -5 2 C-4.34 2.66 -3.68 3.32 -3 4 C-2.525625 3.34 -2.05125 2.68 -1.5625 2 C-1.046875 1.34 -0.53125 0.68 0 0 Z " fill="#E9955A" transform="translate(136,185)"/>
<path d="M0 0 C0.99 0.33 1.98 0.66 3 1 C1.35 2.98 -0.3 4.96 -2 7 C4.71546351 14.98810634 11.4433287 22.78681376 19 30 C17.90365234 30.86431641 17.90365234 30.86431641 16.78515625 31.74609375 C14.26345835 33.78679457 11.84189608 35.88593163 9.4375 38.0625 C8.57253906 38.84496094 7.70757812 39.62742187 6.81640625 40.43359375 C3.30959642 43.62911949 -0.18320296 46.83972061 -3.67578125 50.05078125 C-7.05548263 53.15174437 -10.47758115 56.19415391 -13.94921875 59.19140625 C-15.51437502 60.57172501 -17.05419243 61.98082957 -18.58203125 63.40234375 C-29.33388654 73.40232104 -40.56405514 83.19981806 -56 83 C-62.18916569 82.37438036 -66.18125433 79.81484032 -71 76 C-70.10515904 68.61756209 -65.7652775 63.30508036 -60.60546875 58.27734375 C-60.09502518 57.76877335 -59.5845816 57.26020294 -59.05867004 56.73622131 C-57.98557859 55.6698036 -56.90891967 54.60696457 -55.82885742 53.54760742 C-54.19516337 51.94501746 -52.57232924 50.33205823 -50.95117188 48.71679688 C-45.79695656 43.60173726 -40.55910879 38.6764846 -35 34 C-33.32143254 32.34531971 -31.65674207 30.67653251 -30 29 C-28.96496113 27.95895034 -27.92954054 26.9182801 -26.89379883 25.87792969 C-26.34005081 25.32095398 -25.7863028 24.76397827 -25.21577454 24.19012451 C-22.73560005 21.69654437 -20.25274311 19.2056422 -17.76977539 16.71484375 C-16.45866895 15.39866754 -15.14845542 14.0816013 -13.83911133 12.76367188 C-11.94325097 10.85573296 -10.04422383 8.95099731 -8.14453125 7.046875 C-7.55807327 6.45525574 -6.9716153 5.86363647 -6.36738586 5.25408936 C-2.22774193 1.11387096 -2.22774193 1.11387096 0 0 Z " fill="#3F628D" transform="translate(113,302)"/>
<path d="M0 0 C6.6 0 13.2 0 20 0 C16.77184252 9.72299459 13.49896557 19.43010451 10.1875 29.125 C9.92132874 29.90433899 9.65515747 30.68367798 9.38092041 31.4866333 C6.28995555 40.52035297 3.14091844 49.50077971 -0.42382812 58.36035156 C-3.60208813 66.3441102 -6.31526209 74.49045639 -9.09155273 82.62060547 C-12.04947016 91.27456922 -15.09013247 99.89468696 -18.1875 108.5 C-22.30234362 119.94573913 -26.20327899 131.44476214 -30 143 C-36.27 143 -42.54 143 -49 143 C-48.22926382 137.60484671 -47.19203335 133.19596514 -45.33203125 128.18359375 C-44.78570847 126.67441107 -44.2396559 125.16513056 -43.69384766 123.65576172 C-43.41285217 122.88544617 -43.13185669 122.11513062 -42.84234619 121.32147217 C-41.49593411 117.61081471 -40.19238941 113.88530147 -38.88671875 110.16015625 C-38.35999696 108.6623065 -37.83314008 107.16450425 -37.30615234 105.66674805 C-36.76657265 104.13200886 -36.22702242 102.59725932 -35.6875 101.0625 C-35.40819641 100.26816559 -35.12889282 99.47383118 -34.84112549 98.65542603 C-30.79259012 87.13879549 -26.76995073 75.613792 -22.8034668 64.06860352 C-21.17486723 59.33885738 -19.50709585 54.63283057 -17.73291016 49.95581055 C-16.34855829 46.26159242 -15.05206111 42.53635002 -13.75 38.8125 C-13.45061523 37.95825439 -13.15123047 37.10400879 -12.84277344 36.22387695 C-10.27631162 28.86637418 -7.80869725 21.47741416 -5.39746094 14.06762695 C-5.12708008 13.24480225 -4.85669922 12.42197754 -4.578125 11.57421875 C-4.34512695 10.85838623 -4.11212891 10.14255371 -3.87207031 9.4050293 C-2.71636717 6.21778638 -1.33550652 3.11618188 0 0 Z " fill="#FAFBFB" transform="translate(270,123)"/>
<path d="M0 0 C3.22108438 1.77205788 6.08624743 3.76760022 9 6 C9.84304688 6.57105469 10.68609375 7.14210938 11.5546875 7.73046875 C16.99817927 11.46997797 21.86743892 15.5627264 26.5625 20.1875 C27.07530518 20.68652832 27.58811035 21.18555664 28.11645508 21.69970703 C30.97377536 24.59311067 32.79606889 27.10325255 34 31 C33.46375 30.731875 32.9275 30.46375 32.375 30.1875 C29.68113863 29.70080664 29.68113863 29.70080664 27.0625 32.375 C26.59972656 32.83648437 26.13695312 33.29796875 25.66015625 33.7734375 C20.5196204 37.57138634 12.03576974 36.32665912 6 36 C3.56921546 35.49511343 1.35923272 34.78641091 -1 34 C-1.99 34.495 -1.99 34.495 -3 35 C-5.50583291 33.60622312 -7.90199636 32.16919299 -10.3125 30.625 C-16.2198247 26.7454791 -16.2198247 26.7454791 -23 25 C-23.81832722 26.89332534 -24.62942268 28.78977733 -25.4375 30.6875 C-25.88996094 31.74324219 -26.34242188 32.79898438 -26.80859375 33.88671875 C-27.85447455 36.61972529 -28.53520748 39.12042337 -29 42 C-29.99 41.505 -29.99 41.505 -31 41 C-30.02551228 35.38900227 -27.98893476 30.32521242 -26 25 C-32.27 24.67 -38.54 24.34 -45 24 C-45.66 26.31 -46.32 28.62 -47 31 C-48 28 -48 28 -46 22 C-37.585 21.505 -37.585 21.505 -29 21 C-30.98 19.68 -32.96 18.36 -35 17 C-36.68093862 15.34772856 -38.34770599 13.68091643 -40 12 C-41.86720134 10.50518252 -43.76451604 9.04734061 -45.6875 7.625 C-46.73164063 6.85027344 -47.77578125 6.07554688 -48.8515625 5.27734375 C-52.49634486 2.64098132 -56.19586022 0.09634912 -59.94140625 -2.39453125 C-62.10385444 -4.08099464 -63.53285032 -5.68912207 -65 -8 C-65 -8.66 -65 -9.32 -65 -10 C-45.13418806 -17.82687844 -18.27053996 -8.73158375 0 0 Z " fill="#B7E1EC" transform="translate(315,99)"/>
<path d="M0 0 C5.80275447 -0.392078 9.49825195 -0.47920256 14.125 3.4375 C18.2241337 6.67604209 22.36973223 9.55177334 26.875 12.1875 C28.14096234 12.9343243 29.40657115 13.6817481 30.671875 14.4296875 C31.6918457 15.03248535 31.6918457 15.03248535 32.73242188 15.64746094 C37.22303965 18.32597326 41.67394342 21.06892437 46.125 23.8125 C47.47634033 24.63947388 47.47634033 24.63947388 48.85498047 25.4831543 C51.25369638 26.96375661 53.62929293 28.47510405 56 30 C57.53333984 30.95712891 57.53333984 30.95712891 59.09765625 31.93359375 C61 34 61 34 61.48828125 37.453125 C61.40126953 39.33257812 61.40126953 39.33257812 61.3125 41.25 C61.26738281 42.51328125 61.22226562 43.7765625 61.17578125 45.078125 C61.08876953 46.52445313 61.08876953 46.52445313 61 48 C60.41476562 48.30550781 59.82953125 48.61101562 59.2265625 48.92578125 C44.59596454 56.72437325 30.28845247 65.5092846 16.8828125 75.26953125 C15.84898437 76.00558594 14.81515625 76.74164063 13.75 77.5 C12.83734375 78.1703125 11.9246875 78.840625 10.984375 79.53125 C8 81 8 81 0 81 C0 74.73 0 68.46 0 62 C1.876875 60.948125 3.75375 59.89625 5.6875 58.8125 C13.29157761 54.51544072 20.68620251 49.88883513 28.06518555 45.21801758 C28.93570557 44.67169678 29.80622559 44.12537598 30.703125 43.5625 C31.48333008 43.06878906 32.26353516 42.57507813 33.06738281 42.06640625 C35 41 35 41 37 41 C37 40.34 37 39.68 37 39 C36.46028564 38.90106445 35.92057129 38.80212891 35.36450195 38.70019531 C32.33962826 37.80444542 29.90029979 36.37516333 27.16796875 34.796875 C26.03939453 34.14589844 24.91082031 33.49492187 23.74804688 32.82421875 C22.87007446 32.3125415 22.87007446 32.3125415 21.97436523 31.79052734 C20.20723604 30.76149269 18.43512076 29.74151489 16.66210938 28.72265625 C14.41468733 27.42050734 12.1764917 26.10227106 9.94897461 24.76635742 C8.19753573 23.71729208 6.42972001 22.6937309 4.63110352 21.7277832 C2.703125 20.59765625 2.703125 20.59765625 0 18 C-0.80323459 14.83998941 -0.6697117 11.92060136 -0.4375 8.6875 C-0.40591797 7.85154297 -0.37433594 7.01558594 -0.34179688 6.15429688 C-0.2596788 4.10134494 -0.13412595 2.05021102 0 0 Z " fill="#F8FAFB" transform="translate(294,154)"/>
<path d="M0 0 C1.175625 0.12375 2.35125 0.2475 3.5625 0.375 C8.31532414 0.93716199 12.52787552 2.33579441 17 4 C18.03769531 4.38542969 19.07539063 4.77085938 20.14453125 5.16796875 C26.52406835 7.58164693 32.80896714 10.13644733 39 13 C39 13.66 39 14.32 39 15 C39.99 15 40.98 15 42 15 C42 15.66 42 16.32 42 17 C42.886875 17.2475 43.77375 17.495 44.6875 17.75 C48.13156256 19.04964625 50.33024803 20.48729227 53 23 C53 23.66 53 24.32 53 25 C53.7425 25.2475 54.485 25.495 55.25 25.75 C58.23023087 27.10465039 59.89919252 28.5101541 62 31 C62 31.66 62 32.32 62 33 C62.556875 33.2475 63.11375 33.495 63.6875 33.75 C69.57043432 36.9299645 73.06480899 41.37687737 76.8125 46.75 C77.33658447 47.50079834 77.86066895 48.25159668 78.40063477 49.02514648 C93.40151392 70.98915806 100.39584922 96.37417616 99 123 C98.95359375 124.24330078 98.95359375 124.24330078 98.90625 125.51171875 C98.41976958 132.86973512 96.45408541 139.96131902 94.52636719 147.04980469 C94.05352493 148.80168965 93.60708349 150.56064971 93.1640625 152.3203125 C89.15741218 166.98685817 80.9330807 179.85692341 72 192 C70.02 191.67 68.04 191.34 66 191 C67.56111589 187.69136633 69.4421325 184.68885462 71.4375 181.625 C77.66847534 171.86657168 81.22534698 161.608988 84.6875 150.625 C84.90196777 149.94711426 85.11643555 149.26922852 85.33740234 148.57080078 C86.42577718 145.0676757 87.34504847 141.6084122 88 138 C88.30027271 136.62227813 88.61199134 135.24697863 88.9375 133.875 C89.09089844 133.21242187 89.24429688 132.54984375 89.40234375 131.8671875 C90 130 90 130 92 127 C92.66 127 93.32 127 94 127 C91.82436269 104.44117297 91.82436269 104.44117297 85 83 C82.49067444 76.85943199 80.40568341 71.68606159 81 65 C80.34 66.98 79.68 68.96 79 71 C78.67 71 78.34 71 78 71 C77.79375 69.845 77.5875 68.69 77.375 67.5 C76.1537685 62.54427798 73.55891579 58.63628352 70 55 C69.34 55 68.68 55 68 55 C67.79375 54.195625 67.5875 53.39125 67.375 52.5625 C61.04150537 36.15299118 44.1802023 23.25529768 28.5078125 16.07421875 C27.68023437 15.71972656 26.85265625 15.36523438 26 15 C25.11054688 14.59394531 24.22109375 14.18789062 23.3046875 13.76953125 C-6.90591929 0.95171505 -41.19424512 2.97255598 -72 13 C-75.42113508 14.40131939 -78.63265991 16.08530423 -81.8203125 17.9609375 C-84 19 -84 19 -87 18 C-81.20783854 12.20783854 -76.27817575 7.97737005 -68.875 4.375 C-68.24207031 4.06304687 -67.60914063 3.75109375 -66.95703125 3.4296875 C-65.30626894 2.61657316 -63.65327563 1.80799185 -62 1 C-61.34 0.67 -60.68 0.34 -60 0 C-60 0.66 -60 1.32 -60 2 C-58.33904297 1.566875 -58.33904297 1.566875 -56.64453125 1.125 C-41.31317185 -2.55419849 -14.71641917 -7.35820959 0 0 Z " fill="#66AECE" transform="translate(284,83)"/>
<path d="M0 0 C1.190927 4.16824449 0.67857461 6.08332591 -1 10 C-1.04125 11.03125 -1.0825 12.0625 -1.125 13.125 C-2.28986059 18.28366831 -4.98849402 21.50296101 -8.1875 25.64453125 C-10.00574573 27.85230232 -10.00574573 27.85230232 -11 30 C-9.35 30 -7.7 30 -6 30 C-7.65015198 34.18105994 -10.6868935 37.07100473 -13.8125 40.1875 C-14.38782471 40.76121338 -14.96314941 41.33492676 -15.5559082 41.92602539 C-21.23048737 47.4432131 -27.31105729 51.78082075 -34 56 C-35.26070313 56.82757813 -35.26070313 56.82757813 -36.546875 57.671875 C-47.05111443 64.33142549 -60.32873072 71 -73 71 C-73 70.34 -73 69.68 -73 69 C-73.99 69 -74.98 69 -76 69 C-76.07347656 67.35451172 -76.07347656 67.35451172 -76.1484375 65.67578125 C-76.22350591 64.22133075 -76.29905197 62.76690484 -76.375 61.3125 C-76.4059375 60.59126953 -76.436875 59.87003906 -76.46875 59.12695312 C-76.69537442 54.99105745 -77.28225709 51.82336326 -79 48 C-79.125 45.1875 -79.125 45.1875 -79 43 C-76.29120665 41.64560332 -73.99066732 41.93498549 -71 42 C-71 41.34 -71 40.68 -71 40 C-70.01 40.33 -69.02 40.66 -68 41 C-67.31653318 42.65984798 -66.65411685 44.32836805 -66 46 C-64.73193585 47.86598047 -63.39654961 49.65941077 -62.0234375 51.44921875 C-61 53 -61 53 -61 55 C-56.74737263 51.16444291 -54.25440489 47.27747269 -51.6875 42.1875 C-51.32849609 41.49462891 -50.96949219 40.80175781 -50.59960938 40.08789062 C-49.72463149 38.39626671 -48.86111381 36.69872328 -48 35 C-47.34 35 -46.68 35 -46 35 C-45.7215625 33.9790625 -45.7215625 33.9790625 -45.4375 32.9375 C-43.75352221 29.496328 -41.6613339 27.55866275 -38.9140625 24.94140625 C-36.96514735 22.96464945 -35.34387779 20.91301233 -33.6875 18.6875 C-27.40950005 10.49941506 -21.46935303 3.09794428 -11 1 C-10.33226562 0.81695312 -9.66453125 0.63390625 -8.9765625 0.4453125 C-5.98882775 -0.22781351 -3.04866362 -0.05862815 0 0 Z " fill="#4F7EB0" transform="translate(361,244)"/>
<path d="M0 0 C1.32808878 6.35202056 2.49853461 12.81285877 0 19 C-5.21940803 24.47739665 -12.51114054 27.53822012 -19.27246094 30.70751953 C-22.76123869 32.36072303 -26.04930307 34.22814362 -29.375 36.1875 C-30.29023438 36.69667969 -31.20546875 37.20585937 -32.1484375 37.73046875 C-33.06496094 38.35888672 -33.06496094 38.35888672 -34 39 C-34 39.66 -34 40.32 -34 41 C-32.32239534 42.27710788 -32.32239534 42.27710788 -30.1171875 43.50390625 C-29.28541992 43.99189697 -28.45365234 44.4798877 -27.59667969 44.98266602 C-26.69852539 45.50401123 -25.80037109 46.02535645 -24.875 46.5625 C-23.97168945 47.10769287 -23.06837891 47.65288574 -22.13769531 48.21459961 C-18.01247088 50.70092107 -13.92361552 53.09219303 -9.5546875 55.125 C-5.76070017 56.99286697 -2.78533648 58.71889166 0 62 C1.60522802 68.24649001 0.80949223 74.68467572 0 81 C-4.03709414 81.51381198 -6.65743989 81.82340494 -10.19018555 79.65673828 C-11.69983042 78.43754526 -13.19219345 77.19673758 -14.66943359 75.93847656 C-18.43677932 72.80494156 -22.62267232 70.39782131 -26.8125 67.875 C-34.36000521 63.26822242 -41.83959753 58.57453334 -49.25 53.75 C-50.11343018 53.18909668 -50.97686035 52.62819336 -51.86645508 52.05029297 C-57.86473136 48.13526864 -57.86473136 48.13526864 -59 47 C-59.4140625 44.05078125 -59.4140625 44.05078125 -59.625 40.3125 C-59.72039062 39.09175781 -59.81578125 37.87101562 -59.9140625 36.61328125 C-58.88894667 32.56100715 -58.44127946 32.1830686 -55.140625 29.953125 C-53.43922749 28.94790577 -51.72481628 27.96448328 -50 27 C-48.25038923 25.93984471 -46.50304289 24.87594465 -44.7578125 23.80859375 C-42.88078358 22.6839352 -41.00315804 21.56027192 -39.125 20.4375 C-33.14582776 16.85550741 -27.24141078 13.23956687 -21.55859375 9.19921875 C-20.71345215 8.59859619 -19.86831055 7.99797363 -18.99755859 7.37915039 C-17.41658332 6.24025854 -15.84702757 5.08528058 -14.29150391 3.91186523 C-9.26317267 0.28395093 -6.20377587 -0.62946993 0 0 Z " fill="#FCFBFB" transform="translate(217,154)"/>
<path d="M0 0 C0.928125 0.495 0.928125 0.495 1.875 1 C4.94505377 2.44473119 6.81823467 1.84847076 10 1 C10.08894531 1.7734375 10.17789063 2.546875 10.26953125 3.34375 C11.13591446 8.37999199 11.76619999 11.88084513 15.6484375 15.40234375 C17.62462144 16.72572657 19.64164586 17.99068184 21.69921875 19.18359375 C24 21 24 21 24.4296875 23.625 C24 26 24 26 22.4375 27.5625 C20.00406232 28.99760427 17.54395251 30.37852095 15.07421875 31.75 C11.62024229 33.8314924 8.39375398 36.23518086 5.13671875 38.609375 C3 40 3 40 1 40 C1 40.66 1 41.32 1 42 C-14.53715338 51.28085962 -14.53715338 51.28085962 -21.703125 50.6796875 C-26.05235828 49.39266949 -29.51182087 46.83098596 -33 44 C-32.80734641 32.24813106 -25.88897833 24.54815105 -18.11328125 16.2890625 C-15.9603872 14.03254462 -15.9603872 14.03254462 -14.12109375 11.51171875 C-11.64706412 8.58206672 -8.84185022 6.41022965 -5.75 4.1875 C-5.19570312 3.78080078 -4.64140625 3.37410156 -4.0703125 2.95507812 C-2.71789547 1.96408289 -1.35955093 0.98118534 0 0 Z " fill="#C8B8A1" transform="translate(186,101)"/>
<path d="M0 0 C3.4534417 1.48108873 5.64921326 3.42821699 8.265625 6.10546875 C9.07386719 6.92466797 9.88210938 7.74386719 10.71484375 8.58789062 C11.55144531 9.44576172 12.38804687 10.30363281 13.25 11.1875 C14.89852269 12.87095998 16.54953636 14.55198456 18.203125 16.23046875 C19.00274658 17.04443115 19.80236816 17.85839355 20.6262207 18.69702148 C22.84884627 20.85335461 25.15163032 22.78957854 27.55859375 24.734375 C30.17118433 26.98015393 30.91026877 27.70956382 31.95703125 31.09765625 C31.51864954 40.09040533 31.51864954 40.09040533 28.6875 43.625 C24.9593199 46.91967079 22.75251779 48.34650486 17.8125 48.5625 C16.91144531 48.62566406 16.01039063 48.68882812 15.08203125 48.75390625 C10.24816601 47.57147787 7.51232805 44.40592817 4 41 C3.13463623 40.18700439 2.26927246 39.37400879 1.37768555 38.53637695 C-1.46598886 35.84560701 -4.26656588 33.11528409 -7.0625 30.375 C-7.55097412 29.90964844 -8.03944824 29.44429688 -8.54272461 28.96484375 C-9.97098463 27.60319635 -11.37845119 26.21984184 -12.78515625 24.8359375 C-13.61926025 24.02688965 -14.45336426 23.2178418 -15.31274414 22.38427734 C-17 20 -17 20 -16.97241211 17.41748047 C-15.8862244 14.71714637 -14.81242601 13.42087791 -12.65625 11.484375 C-11.98722656 10.87335938 -11.31820313 10.26234375 -10.62890625 9.6328125 C-9.92636719 9.01148438 -9.22382813 8.39015625 -8.5 7.75 C-7.79746094 7.11320312 -7.09492188 6.47640625 -6.37109375 5.8203125 C-5.07683845 4.64825086 -3.77841125 3.48076864 -2.47460938 2.31933594 C-1.63207243 1.56551646 -0.79940988 0.79940988 0 0 Z " fill="#2EB8CE" transform="translate(391,316)"/>
<path d="M0 0 C7.3321875 -0.0928125 7.3321875 -0.0928125 14.8125 -0.1875 C16.35139893 -0.21481201 17.89029785 -0.24212402 19.47583008 -0.27026367 C20.68650146 -0.27775635 21.89717285 -0.28524902 23.14453125 -0.29296875 C25.00621948 -0.31653442 25.00621948 -0.31653442 26.90551758 -0.34057617 C30 0 30 0 31.90966797 1.38354492 C33.7005887 4.03864706 33.31635075 6.72985002 33.30078125 9.84375 C33.64689453 10.91109375 33.64689453 10.91109375 34 12 C35.98 12.99 37.96 13.98 40 15 C40 22.59 40 30.18 40 38 C35.5722784 38 35.30876135 37.69160275 32.12890625 35.0546875 C26.08535304 30.84067479 20.09004075 31.11197881 12.9375 31.125 C8.668125 31.08375 4.39875 31.0425 0 31 C0 20.77 0 10.54 0 0 Z " fill="#045195" transform="translate(73,189)"/>
<path d="M0 0 C11.22 0 22.44 0 34 0 C34 10.89 34 21.78 34 33 C22.78 33 11.56 33 0 33 C0 22.11 0 11.22 0 0 Z " fill="#F9B10B" transform="translate(73,70)"/>
<path d="M0 0 C10.89 0 21.78 0 33 0 C33 10.89 33 21.78 33 33 C22.11 33 11.22 33 0 33 C0 22.11 0 11.22 0 0 Z " fill="#2CB7CB" transform="translate(29,139)"/>
<path d="M0 0 C9.9 0 19.8 0 30 0 C30 9.57 30 19.14 30 29 C20.1 29 10.2 29 0 29 C0 19.43 0 9.86 0 0 Z " fill="#1DABC8" transform="translate(148,51)"/>
<path d="M0 0 C8.58 0 17.16 0 26 0 C26 8.91 26 17.82 26 27 C17.42 27 8.84 27 0 27 C0 18.09 0 9.18 0 0 Z " fill="#26A0BD" transform="translate(124,99)"/>
<path d="M0 0 C9.24 0 18.48 0 28 0 C28 8.25 28 16.5 28 25 C18.76 25 9.52 25 0 25 C0 16.75 0 8.5 0 0 Z " fill="#F68B0E" transform="translate(84,143)"/>
<path d="M0 0 C1.30643901 3.91931704 0.36918893 5.34430436 -1.08984375 9.171875 C-1.54423828 10.39390625 -1.99863281 11.6159375 -2.46679688 12.875 C-3.19874016 14.80922927 -3.93443139 16.74196924 -4.67260742 18.67382812 C-5.38373161 20.54457642 -6.08067426 22.42069579 -6.77734375 24.296875 C-7.20265381 25.41416992 -7.62796387 26.53146484 -8.06616211 27.68261719 C-9.31405536 32.11565602 -9.81336677 35.98785445 -8.05712891 40.33251953 C-7.61804199 41.00911621 -7.17895508 41.68571289 -6.7265625 42.3828125 C-6.23575195 43.15197998 -5.74494141 43.92114746 -5.23925781 44.71362305 C-4.4402002 45.90725464 -4.4402002 45.90725464 -3.625 47.125 C-3.08713867 47.95233643 -2.54927734 48.77967285 -1.99511719 49.63208008 C2.65525896 56.6959166 7.67290911 63.43542118 13 70 C13.99 69.505 13.99 69.505 15 69 C14.67 66.69 14.34 64.38 14 62 C15.32 62.33 16.64 62.66 18 63 C17.67 63.99 17.34 64.98 17 66 C17.31260159 68.53076813 17.31260159 68.53076813 17.9375 71.1875 C18.13214844 72.08855469 18.32679688 72.98960937 18.52734375 73.91796875 C18.68332031 74.60503906 18.83929688 75.29210937 19 76 C19.62390625 76.08121094 20.2478125 76.16242188 20.890625 76.24609375 C23 77 23 77 24.046875 78.72265625 C26.47854241 86.81470503 26.28005273 94.6399073 26 103 C26.99 103 27.98 103 29 103 C29.33 103.99 29.66 104.98 30 106 C26.91747911 106.50509639 23.83386475 107.00317999 20.75 107.5 C19.87730469 107.64308594 19.00460937 107.78617187 18.10546875 107.93359375 C17.26113281 108.06894531 16.41679687 108.20429688 15.546875 108.34375 C14.38430176 108.53227539 14.38430176 108.53227539 13.19824219 108.72460938 C11 109 11 109 7 109 C7 108.34 7 107.68 7 107 C5.515 106.505 5.515 106.505 4 106 C5.84765334 101.15879294 8.18837216 96.63502895 10.5625 92.03515625 C13.06880577 86.74330955 15.77958024 80.84719223 14 75 C10.99415987 70.69433711 7.51915109 66.89014593 4 63 C-0.49531985 57.62604945 -3.92254026 51.83078324 -7.19775391 45.65869141 C-9.18560436 41.82950277 -9.18560436 41.82950277 -13 40 C-12.46329809 34.52040992 -11.43095875 29.65432021 -9.53125 24.47265625 C-9.29088013 23.79827011 -9.05051025 23.12388397 -8.80285645 22.42906189 C-8.29901249 21.02025539 -7.79128091 19.61283355 -7.27978516 18.20678711 C-6.49418163 16.0465004 -5.7207587 13.88214158 -4.94921875 11.71679688 C-4.45642274 10.34350092 -3.96295762 8.97044484 -3.46875 7.59765625 C-3.23643677 6.94982681 -3.00412354 6.30199738 -2.76477051 5.63453674 C-1.11710176 1.11710176 -1.11710176 1.11710176 0 0 Z M18 61 C20 62 20 62 20 62 Z " fill="#7E604A" transform="translate(259,210)"/>
<path d="M0 0 C0.87454834 0.00523682 1.74909668 0.01047363 2.65014648 0.01586914 C3.50036377 0.0183667 4.35058105 0.02086426 5.2265625 0.0234375 C6.85742798 0.03709351 6.85742798 0.03709351 8.52124023 0.05102539 C11.96561523 0.07165039 15.40999023 0.09227539 18.95874023 0.11352539 C18.95874023 7.70352539 18.95874023 15.29352539 18.95874023 23.11352539 C11.69874023 23.11352539 4.43874023 23.11352539 -3.04125977 23.11352539 C-3.06188477 19.50415039 -3.08250977 15.89477539 -3.10375977 12.17602539 C-3.11286377 11.03657471 -3.12196777 9.89712402 -3.13134766 8.72314453 C-3.13384521 7.83232178 -3.13634277 6.94149902 -3.13891602 6.02368164 C-3.14415283 5.10723877 -3.14938965 4.1907959 -3.15478516 3.24658203 C-3.00429848 0.41905065 -2.82708258 0.15722921 0 0 Z " fill="#34C0D4" transform="translate(199.041259765625,21.886474609375)"/>
<path d="M0 0 C0.99 0.33 1.98 0.66 3 1 C3.68346682 2.65984798 4.34588315 4.32836805 5 6 C5.83541471 7.11842165 6.69134624 8.22168569 7.5625 9.3125 C10.43509401 13.17652026 10.83802464 16.22172694 11 21 C10.67 21.66 10.34 22.32 10 23 C10.99 23.33 11.98 23.66 13 24 C12.01269344 26.56912029 11.46442081 27.75972051 8.9765625 29.046875 C8.20054687 29.27890625 7.42453125 29.5109375 6.625 29.75 C5.85414063 29.99234375 5.08328125 30.2346875 4.2890625 30.484375 C2 31 2 31 -2 31 C-2 30.34 -2 29.68 -2 29 C-2.99 29 -3.98 29 -5 29 C-5.07347656 27.35451172 -5.07347656 27.35451172 -5.1484375 25.67578125 C-5.22350591 24.22133075 -5.29905197 22.76690484 -5.375 21.3125 C-5.4059375 20.59126953 -5.436875 19.87003906 -5.46875 19.12695312 C-5.69537442 14.99105745 -6.28225709 11.82336326 -8 8 C-8.125 5.1875 -8.125 5.1875 -8 3 C-5.29120665 1.64560332 -2.99066732 1.93498549 0 2 C0 1.34 0 0.68 0 0 Z " fill="#4D6871" transform="translate(290,284)"/>
<path d="M0 0 C0.78375 0.04125 1.5675 0.0825 2.375 0.125 C0.72484802 4.30605994 -2.3118935 7.19600473 -5.4375 10.3125 C-6.01282471 10.88621338 -6.58814941 11.45992676 -7.1809082 12.05102539 C-12.85548737 17.5682131 -18.93605729 21.90582075 -25.625 26.125 C-26.88570313 26.95257813 -26.88570313 26.95257813 -28.171875 27.796875 C-44.46262887 38.125 -44.46262887 38.125 -51.625 38.125 C-51.295 36.805 -50.965 35.485 -50.625 34.125 C-51.285 33.795 -51.945 33.465 -52.625 33.125 C-53.23961794 25.87250831 -53.23961794 25.87250831 -50.3125 22.3125 C-49.425625 21.590625 -48.53875 20.86875 -47.625 20.125 C-47.026875 19.526875 -46.42875 18.92875 -45.8125 18.3125 C-45.420625 17.920625 -45.02875 17.52875 -44.625 17.125 C-45.77310797 21.62911588 -47.12689628 25.21492462 -49.625 29.125 C-49.955 30.115 -50.285 31.105 -50.625 32.125 C-47.655 31.135 -44.685 30.145 -41.625 29.125 C-41.625 28.465 -41.625 27.805 -41.625 27.125 C-40.635 27.125 -39.645 27.125 -38.625 27.125 C-38.625 26.465 -38.625 25.805 -38.625 25.125 C-34.24038462 22.125 -34.24038462 22.125 -31.625 22.125 C-31.625 21.465 -31.625 20.805 -31.625 20.125 C-29.645 19.465 -27.665 18.805 -25.625 18.125 C-25.625 17.465 -25.625 16.805 -25.625 16.125 C-22.6423094 14.60051369 -19.806798 13.18559933 -16.625 12.125 C-16.026875 11.196875 -15.42875 10.26875 -14.8125 9.3125 C-12.43095036 5.84224195 -10.26379289 4.18170902 -6.625 2.125 C-5.965 2.125 -5.305 2.125 -4.625 2.125 C-2.625 0.125 -2.625 0.125 0 0 Z " fill="#5382B0" transform="translate(352.625,273.875)"/>
<path d="M0 0 C-0.4464859 5.06017356 -2.595189 7.43305514 -6 11 C-6.99 11.33 -7.98 11.66 -9 12 C-16.58712442 19.30775356 -20.42236064 27.64157011 -24.26855469 37.22802734 C-25.65414639 40.58471111 -27.32380445 43.78170455 -29 47 C-30.98 46.01 -32.96 45.02 -35 44 C-34.80734641 32.24813106 -27.88897833 24.54815105 -20.11328125 16.2890625 C-17.96068095 14.0313418 -17.96068095 14.0313418 -16.11328125 11.51171875 C-13.6400993 8.57224371 -10.95929543 6.47230362 -7.875 4.1875 C-6.82054687 3.39730469 -5.76609375 2.60710937 -4.6796875 1.79296875 C-2 0 -2 0 0 0 Z " fill="#E8AB6B" transform="translate(188,101)"/>
<path d="M0 0 C0.99 0.33 1.98 0.66 3 1 C2.98952637 2.13018555 2.97905273 3.26037109 2.96826172 4.42480469 C2.93203568 8.62171252 2.90909002 12.81860654 2.89013672 17.015625 C2.88008509 18.83140386 2.86644172 20.64716656 2.84912109 22.46289062 C2.82483594 25.07425935 2.81350852 27.68541387 2.8046875 30.296875 C2.79436493 31.10743347 2.78404236 31.91799194 2.77340698 32.75311279 C2.72006363 38.20599707 2.72006363 38.20599707 5 43 C7.0335948 44.26804566 7.0335948 44.26804566 9 45 C9.99 43.02 10.98 41.04 12 39 C12.99 39.33 13.98 39.66 15 40 C17.20483307 48.72090222 19.13702808 58.72594385 15 67 C14.34 60.73 13.68 54.46 13 48 C12.01 49.98 11.02 51.96 10 54 C9.67 54 9.34 54 9 54 C8.814375 53.175 8.62875 52.35 8.4375 51.5 C6.94681928 47.87051652 6.28499927 47.40235083 3.4375 45.0625 C-2.65213976 38.26578236 -0.71241272 28.01858941 -0.4375 19.5 C-0.40235151 17.60943258 -0.37041872 15.71880249 -0.34179688 13.828125 C-0.26502541 9.21719194 -0.1444371 4.60928946 0 0 Z " fill="#DD3618" transform="translate(123,138)"/>
<path d="M0 0 C0.99 0.33 1.98 0.66 3 1 C1.66536458 2.46484375 0.33072917 3.9296875 -1.00390625 5.39453125 C-1.33261719 5.92433594 -1.66132812 6.45414062 -2 7 C-1.505 8.485 -1.505 8.485 -1 10 C-1.845625 10.53625 -2.69125 11.0725 -3.5625 11.625 C-7.30774716 14.10991339 -10.64327872 17.02066159 -14 20 C-14 19.01 -14 18.02 -14 17 C-14.70125 17.71285156 -15.4025 18.42570312 -16.125 19.16015625 C-20.92451041 24.01404242 -25.74340979 28.73333786 -30.94140625 33.1640625 C-35.14632503 36.91417982 -39.0539476 40.98117205 -43 45 C-43.66 44.34 -44.32 43.68 -45 43 C-44.113125 42.29875 -43.22625 41.5975 -42.3125 40.875 C-39.65058212 38.6660425 -37.5415814 36.26947263 -35.37597656 33.56542969 C-33.89769781 31.8836122 -32.32739245 30.51395601 -30.609375 29.078125 C-24.63575561 23.91531799 -19.16917873 18.23904237 -13.625 12.625 C-11.47422699 10.4476508 -9.32015877 8.27363898 -7.1640625 6.1015625 C-6.6745108 5.60371246 -6.18495911 5.10586243 -5.68057251 4.59292603 C-2.22551165 1.11275583 -2.22551165 1.11275583 0 0 Z " fill="#5679A0" transform="translate(113,302)"/>
<path d="M0 0 C1.30643901 3.91931704 0.36918893 5.34430436 -1.08984375 9.171875 C-1.54423828 10.39390625 -1.99863281 11.6159375 -2.46679688 12.875 C-3.19874016 14.80922927 -3.93443139 16.74196924 -4.67260742 18.67382812 C-5.38373161 20.54457642 -6.08067426 22.42069579 -6.77734375 24.296875 C-7.20265381 25.41416992 -7.62796387 26.53146484 -8.06616211 27.68261719 C-9.31405536 32.11565602 -9.81336677 35.98785445 -8.05712891 40.33251953 C-7.61804199 41.00911621 -7.17895508 41.68571289 -6.7265625 42.3828125 C-6.23575195 43.15197998 -5.74494141 43.92114746 -5.23925781 44.71362305 C-4.4402002 45.90725464 -4.4402002 45.90725464 -3.625 47.125 C-3.08713867 47.95233643 -2.54927734 48.77967285 -1.99511719 49.63208008 C2.65525896 56.6959166 7.67290911 63.43542118 13 70 C14.485 69.505 14.485 69.505 16 69 C16 71.97 16 74.94 16 78 C15.12988281 76.91138672 15.12988281 76.91138672 14.2421875 75.80078125 C12.85414626 74.0669388 11.46394788 72.33481792 10.0703125 70.60546875 C8.03697489 68.07808727 6.0177422 65.53984281 4 63 C3.48179687 62.36191406 2.96359375 61.72382813 2.4296875 61.06640625 C-1.36680377 56.24299521 -4.32638662 51.07053672 -7.19726562 45.65917969 C-9.18544354 41.82979343 -9.18544354 41.82979343 -13 40 C-12.46329809 34.52040992 -11.43095875 29.65432021 -9.53125 24.47265625 C-9.29088013 23.79827011 -9.05051025 23.12388397 -8.80285645 22.42906189 C-8.29901249 21.02025539 -7.79128091 19.61283355 -7.27978516 18.20678711 C-6.49418163 16.0465004 -5.7207587 13.88214158 -4.94921875 11.71679688 C-4.45642274 10.34350092 -3.96295762 8.97044484 -3.46875 7.59765625 C-3.23643677 6.94982681 -3.00412354 6.30199738 -2.76477051 5.63453674 C-1.11710176 1.11710176 -1.11710176 1.11710176 0 0 Z " fill="#6A5852" transform="translate(259,210)"/>
<path d="M0 0 C0.91120605 0.01047363 1.82241211 0.02094727 2.76123047 0.03173828 C3.74736328 0.03818359 4.73349609 0.04462891 5.74951172 0.05126953 C7.29832031 0.07640625 7.29832031 0.07640625 8.87841797 0.10205078 C9.91869141 0.11107422 10.95896484 0.12009766 12.03076172 0.12939453 C14.60520889 0.15301331 17.17920009 0.18594929 19.75341797 0.22705078 C19.75341797 1.54705078 19.75341797 2.86705078 19.75341797 4.22705078 C22.22841797 4.72205078 22.22841797 4.72205078 24.75341797 5.22705078 C24.75341797 5.55705078 24.75341797 5.88705078 24.75341797 6.22705078 C0.20812583 6.50112973 0.20812583 6.50112973 -3.00830078 3.68408203 C-3.41693359 3.20326172 -3.82556641 2.72244141 -4.24658203 2.22705078 C-2.24658203 0.22705078 -2.24658203 0.22705078 0 0 Z " fill="#DE7E35" transform="translate(241.24658203125,313.77294921875)"/>
<path d="M0 0 C0.87454834 0.00523682 1.74909668 0.01047363 2.65014648 0.01586914 C3.50036377 0.0183667 4.35058105 0.02086426 5.2265625 0.0234375 C6.85742798 0.03709351 6.85742798 0.03709351 8.52124023 0.05102539 C11.96561523 0.07165039 15.40999023 0.09227539 18.95874023 0.11352539 C18.95874023 7.70352539 18.95874023 15.29352539 18.95874023 23.11352539 C18.62874023 23.11352539 18.29874023 23.11352539 17.95874023 23.11352539 C17.62874023 16.18352539 17.29874023 9.25352539 16.95874023 2.11352539 C11.01874023 2.11352539 5.07874023 2.11352539 -1.04125977 2.11352539 C-1.04125977 8.71352539 -1.04125977 15.31352539 -1.04125977 22.11352539 C1.92874023 22.11352539 4.89874023 22.11352539 7.95874023 22.11352539 C7.95874023 22.44352539 7.95874023 22.77352539 7.95874023 23.11352539 C4.32874023 23.11352539 0.69874023 23.11352539 -3.04125977 23.11352539 C-3.06808964 19.4676437 -3.08801546 15.82195693 -3.10375977 12.17602539 C-3.11213867 11.13510742 -3.12051758 10.09418945 -3.12915039 9.02172852 C-3.13398438 7.53769531 -3.13398438 7.53769531 -3.13891602 6.02368164 C-3.14415283 5.10723877 -3.14938965 4.1907959 -3.15478516 3.24658203 C-3.00429848 0.41905065 -2.82708258 0.15722921 0 0 Z " fill="#58CDDC" transform="translate(199.041259765625,21.886474609375)"/>
<path d="M0 0 C4.23429756 1.31061591 8.07407404 2.94356259 12 5 C10 5.66666667 8 6.33333333 6 7 C4.78091897 9.38197487 4.78091897 9.38197487 3.875 12.25 C3.54242188 13.20390625 3.20984375 14.1578125 2.8671875 15.140625 C2.07505878 17.7525089 1.48010624 20.31532432 1 23 C0.34 22.67 -0.32 22.34 -1 22 C-0.02551228 16.38900227 2.01106524 11.32521242 4 6 C-2.27 5.67 -8.54 5.34 -15 5 C-15.99 8.465 -15.99 8.465 -17 12 C-18 9 -18 9 -16 3 C-7.585 2.505 -7.585 2.505 1 2 C0.67 1.34 0.34 0.68 0 0 Z " fill="#64C1D4" transform="translate(285,118)"/>
<path d="M0 0 C6 2 12 4 18 6 C17.01 7.485 17.01 7.485 16 9 C16.33 9.66 16.66 10.32 17 11 C9.84831485 10.50104522 3.58708719 7.68436185 -3 5 C-2.01 4.34 -1.02 3.68 0 3 C0 2.01 0 1.02 0 0 Z " fill="#EDA968" transform="translate(208,304)"/>
<path d="M0 0 C0.99 0.33 1.98 0.66 3 1 C2.67 2.32 2.34 3.64 2 5 C5.465 6.485 5.465 6.485 9 8 C9 8.66 9 9.32 9 10 C9.66 10.226875 10.32 10.45375 11 10.6875 C14.28866982 12.12629305 17.13739203 13.91498271 20.1328125 15.87890625 C22.10749909 17.15651676 22.10749909 17.15651676 25 18 C25 18.66 25 19.32 25 20 C25.78375 20.28875 26.5675 20.5775 27.375 20.875 C30 22 30 22 32 24 C19.85142393 21.66048303 7.30637396 10.57023243 -3 4 C-2.67 3.01 -2.34 2.02 -2 1 C-1.34 0.67 -0.68 0.34 0 0 Z " fill="#B54930" transform="translate(185,191)"/>
<path d="M0 0 C5.61 0 11.22 0 17 0 C17.33 0.66 17.66 1.32 18 2 C15.69 2.33 13.38 2.66 11 3 C10.67 3.99 10.34 4.98 10 6 C1.42857143 5.28571429 1.42857143 5.28571429 -2 2 C-1.34 2 -0.68 2 0 2 C0 1.34 0 0.68 0 0 Z " fill="#E79447" transform="translate(228,312)"/>
<path d="M0 0 C4.62 0 9.24 0 14 0 C14 0.33 14 0.66 14 1 C10.37 1.33 6.74 1.66 3 2 C2.34 11.57 1.68 21.14 1 31 C0.67 31 0.34 31 0 31 C0 20.77 0 10.54 0 0 Z " fill="#2879B3" transform="translate(73,189)"/>
<path d="M0 0 C0.33 0 0.66 0 1 0 C2.38510763 6.97932876 3.31219798 13.9733155 3.875 21.0625 C3.98509399 22.16936157 3.98509399 22.16936157 4.09741211 23.29858398 C4.2421875 25.41015625 4.2421875 25.41015625 4 29 C2.68 29.99 1.36 30.98 0 32 C0 21.44 0 10.88 0 0 Z " fill="#447EB3" transform="translate(374,181)"/>
<path d="M0 0 C3.63 0 7.26 0 11 0 C10.67 2.64 10.34 5.28 10 8 C6.4134946 6.66786942 3.12317517 5.23083941 0 3 C0 2.01 0 1.02 0 0 Z " fill="#E05A1A" transform="translate(144,138)"/>
<path d="M0 0 C1.32 0.33 2.64 0.66 4 1 C4 1.66 4 2.32 4 3 C5.32 3.33 6.64 3.66 8 4 C8 4.66 8 5.32 8 6 C8.99 6.33 9.98 6.66 11 7 C11 7.66 11 8.32 11 9 C11.87398438 9.35191406 11.87398438 9.35191406 12.765625 9.7109375 C15.50531734 11.29152924 16.86983969 13.09401497 18.75 15.625 C19.36359375 16.44226563 19.9771875 17.25953125 20.609375 18.1015625 C21.06828125 18.72804688 21.5271875 19.35453125 22 20 C21.67 20.66 21.34 21.32 21 22 C20.61255615 21.57702637 20.2251123 21.15405273 19.82592773 20.71826172 C18.03390963 18.76667488 16.23575929 16.8208368 14.4375 14.875 C13.82841797 14.20984375 13.21933594 13.5446875 12.59179688 12.859375 C9.54241562 9.56797936 6.46794741 6.46427048 3.03515625 3.5703125 C2.03355469 2.72210938 1.03195312 1.87390625 0 1 C0 0.67 0 0.34 0 0 Z " fill="#0E2455" transform="translate(347,98)"/>
<path d="M0 0 C0.99 0.66 1.98 1.32 3 2 C5.67145537 1.19838209 5.67145537 1.19838209 8 0 C8.66 3.3 9.32 6.6 10 10 C9.01 10.495 9.01 10.495 8 11 C8 10.34 8 9.68 8 9 C7.34 8.67 6.68 8.34 6 8 C6.33 6.35 6.66 4.7 7 3 C6.37351563 3.37253906 5.74703125 3.74507813 5.1015625 4.12890625 C4.28429687 4.60199219 3.46703125 5.07507813 2.625 5.5625 C1.40683594 6.27599609 1.40683594 6.27599609 0.1640625 7.00390625 C-0.55007812 7.33261719 -1.26421875 7.66132812 -2 8 C-2.66 7.67 -3.32 7.34 -4 7 C-2.68 4.69 -1.36 2.38 0 0 Z " fill="#E7DABE" transform="translate(188,102)"/>
<path d="M0 0 C0.66 0 1.32 0 2 0 C2.73598077 8.49208584 3.29526567 16.53095523 2 25 C1.67 25 1.34 25 1 25 C0.91697632 24.15236084 0.91697632 24.15236084 0.83227539 23.28759766 C0.57975628 20.73297668 0.32120277 18.17900185 0.0625 15.625 C-0.02451172 14.73554688 -0.11152344 13.84609375 -0.20117188 12.9296875 C-0.28818359 12.07890625 -0.37519531 11.228125 -0.46484375 10.3515625 C-0.543396 9.56604004 -0.62194824 8.78051758 -0.70288086 7.97119141 C-0.90696298 5.92865197 -0.90696298 5.92865197 -2 4 C-1.0625 1.875 -1.0625 1.875 0 0 Z M-4 6 C-3.01 6.495 -3.01 6.495 -2 7 C-2.66 7.66 -3.32 8.32 -4 9 C-4 8.01 -4 7.02 -4 6 Z " fill="#E1501D" transform="translate(137,180)"/>
<path d="M0 0 C0.721875 0.309375 1.44375 0.61875 2.1875 0.9375 C4.80675861 1.9269977 7.25834328 2.48130819 10 3 C10.66 3.33 11.32 3.66 12 4 C12 4.66 12 5.32 12 6 C12.99 6.33 13.98 6.66 15 7 C14.01 8.485 14.01 8.485 13 10 C12.38125 9.835 11.7625 9.67 11.125 9.5 C9.03936614 8.92365356 9.03936614 8.92365356 7 9 C6.95875 8.4225 6.9175 7.845 6.875 7.25 C5.56544153 3.88256394 2.99617216 2.84870197 0 1 C0 0.67 0 0.34 0 0 Z " fill="#89B9B4" transform="translate(203,117)"/>
<path d="M0 0 C0.33 0.66 0.66 1.32 1 2 C0.00390625 3.875 0.00390625 3.875 -1.4375 6 C-3.46200158 8.76381254 -3.46200158 8.76381254 -4 12 C-3.34 12.33 -2.68 12.66 -2 13 C-2 13.66 -2 14.32 -2 15 C-6.95 15 -11.9 15 -17 15 C-17 14.67 -17 14.34 -17 14 C-13.7 14 -10.4 14 -7 14 C-6.89816406 13.27425781 -6.79632813 12.54851562 -6.69140625 11.80078125 C-5.92660387 8.70268347 -4.76251495 6.78911705 -2.9375 4.1875 C-2.38964844 3.39730469 -1.84179688 2.60710937 -1.27734375 1.79296875 C-0.85582031 1.20128906 -0.43429687 0.60960937 0 0 Z " fill="#BC5D26" transform="translate(268,304)"/>
<path d="M0 0 C0.66 0.33 1.32 0.66 2 1 C-4.27450666 6.03805976 -10.99752412 10.05527192 -18 14 C-18.33 13.34 -18.66 12.68 -19 12 C-14.25 9 -14.25 9 -12 9 C-12 8.34 -12 7.68 -12 7 C-10.02 6.34 -8.04 5.68 -6 5 C-6 4.34 -6 3.68 -6 3 C-4.03533587 1.93224776 -2.03144641 0.93446535 0 0 Z " fill="#81A2C2" transform="translate(333,287)"/>
<path d="M0 0 C0.66 0.33 1.32 0.66 2 1 C1.24203125 1.54914063 1.24203125 1.54914063 0.46875 2.109375 C-2.87691727 4.89743106 -4.80904415 6.71144921 -5.46484375 11.13671875 C-5.44014239 14.11852587 -5.30676588 17.03459654 -5 20 C-7.12999997 16.20960634 -7.16702456 13.34263862 -7 9 C-8.65 9.33 -10.3 9.66 -12 10 C-10.625 8.5 -10.625 8.5 -9 7 C-8.34 7 -7.68 7 -7 7 C-7 6.34 -7 5.68 -7 5 C-5.46875 3.7109375 -5.46875 3.7109375 -3.5 2.375 C-2.8503125 1.92898437 -2.200625 1.48296875 -1.53125 1.0234375 C-0.77328125 0.51683594 -0.77328125 0.51683594 0 0 Z " fill="#8F785D" transform="translate(194,136)"/>
<path d="M0 0 C0.33 0.66 0.66 1.32 1 2 C-1.51428571 8.51428571 -1.51428571 8.51428571 -3 10 C-4.4887186 10.08669432 -5.981445 10.10703494 -7.47265625 10.09765625 C-8.37177734 10.09443359 -9.27089844 10.09121094 -10.19726562 10.08789062 C-11.14279297 10.07951172 -12.08832031 10.07113281 -13.0625 10.0625 C-14.01189453 10.05798828 -14.96128906 10.05347656 -15.93945312 10.04882812 C-18.29303065 10.0370011 -20.64648477 10.02052025 -23 10 C-23 9.67 -23 9.34 -23 9 C-16.73 9 -10.46 9 -4 9 C-3.67 7.02 -3.34 5.04 -3 3 C-1.4375 1.125 -1.4375 1.125 0 0 Z " fill="#BD4224" transform="translate(244,257)"/>
<path d="M0 0 C3.81684226 1.55500981 6.19195732 4.03595495 9 7 C9.66 6.67 10.32 6.34 11 6 C11 8.97 11 11.94 11 15 C8.39369226 11.7681784 5.81620539 8.51371354 3.25 5.25 C2.63640625 4.47140625 2.0228125 3.6928125 1.390625 2.890625 C0 1 0 1 0 0 Z " fill="#945438" transform="translate(264,273)"/>
<path d="M0 0 C0.99 0.33 1.98 0.66 3 1 C1.35 2.98 -0.3 4.96 -2 7 C-1.67 7.66 -1.34 8.32 -1 9 C-2.32 8.67 -3.64 8.34 -5 8 C-5 4 -5 4 -2.6875 1.6875 C-1.800625 1.130625 -0.91375 0.57375 0 0 Z " fill="#37618D" transform="translate(113,302)"/>
<path d="M0 0 C0.33 0.66 0.66 1.32 1 2 C0.29296875 3.76953125 0.29296875 3.76953125 -0.8125 5.8125 C-2.39794541 8.82429768 -3.80292815 11.8078084 -5 15 C-5.33 15 -5.66 15 -6 15 C-6.8125 11.8125 -6.8125 11.8125 -7 8 C-4.6875 5.25 -4.6875 5.25 -2 3 C-1.34 2.01 -0.68 1.02 0 0 Z " fill="#6890B4" transform="translate(307,291)"/>
<path d="M0 0 C3.25548753 3.02295271 5.68977058 6.20462309 8 10 C8 10.66 8 11.32 8 12 C6.68 11.67 5.36 11.34 4 11 C4 10.34 4 9.68 4 9 C3.01 8.67 2.02 8.34 1 8 C0.67 5.36 0.34 2.72 0 0 Z " fill="#79664F" transform="translate(214,197)"/>
<path d="M0 0 C0.33 0 0.66 0 1 0 C1 5.28 1 10.56 1 16 C1.99 16 2.98 16 4 16 C4.33 16.99 4.66 17.98 5 19 C3.02 19 1.04 19 -1 19 C-0.67 12.73 -0.34 6.46 0 0 Z " fill="#696457" transform="translate(284,297)"/>
<path d="M0 0 C2.97 0.99 5.94 1.98 9 3 C7.68 3.33 6.36 3.66 5 4 C4.154375 4.391875 3.30875 4.78375 2.4375 5.1875 C1.633125 5.455625 0.82875 5.72375 0 6 C-0.99 5.34 -1.98 4.68 -3 4 C-2.01 3.67 -1.02 3.34 0 3 C0 2.01 0 1.02 0 0 Z " fill="#EEB47A" transform="translate(208,304)"/>
<path d="M0 0 C0.99 0.33 1.98 0.66 3 1 C2.67 2.32 2.34 3.64 2 5 C3.32 5.99 4.64 6.98 6 8 C2.17902761 7.46930939 -0.06171403 6.50298434 -3 4 C-2.67 3.01 -2.34 2.02 -2 1 C-1.34 0.67 -0.68 0.34 0 0 Z " fill="#B73E25" transform="translate(185,191)"/>
<path d="M0 0 C0.66 0.33 1.32 0.66 2 1 C1.4946875 1.37511719 0.989375 1.75023437 0.46875 2.13671875 C-3.73547267 5.20989976 -3.73547267 5.20989976 -5.4375 9.875 C-5.293125 10.57625 -5.14875 11.2775 -5 12 C-7.35953094 9.64046906 -7.49141413 8.22104383 -8 5 C-6.71475739 4.13619741 -5.42157581 3.28419631 -4.125 2.4375 C-3.04605469 1.72400391 -3.04605469 1.72400391 -1.9453125 0.99609375 C-1.30335938 0.66738281 -0.66140625 0.33867187 0 0 Z " fill="#788270" transform="translate(213,174)"/>
<path d="M0 0 C0.66 0 1.32 0 2 0 C1.67 2.64 1.34 5.28 1 8 C-1.475 7.01 -1.475 7.01 -4 6 C-3.67 4.68 -3.34 3.36 -3 2 C-2.01 2 -1.02 2 0 2 C0 1.34 0 0.68 0 0 Z " fill="#DD732D" transform="translate(153,138)"/>
<path d="M0 0 C-2.3000993 2.3000993 -3.31376669 2.42552031 -6.4375 3 C-9.71405634 3.60457053 -11.1304565 4.086971 -14 6 C-14 4.68 -14 3.36 -14 2 C-4.58997722 -0.29612756 -4.58997722 -0.29612756 0 0 Z " fill="#708EAF" transform="translate(240,38)"/>
<path d="M0 0 C-4.99813269 3.12383293 -9.23167884 4.7856166 -15 6 C-12.87748883 3.69895986 -10.84451444 2.18105541 -8.0625 0.75 C-7.39347656 0.39421875 -6.72445312 0.0384375 -6.03515625 -0.328125 C-3.61730731 -1.12634 -2.36988243 -0.82707306 0 0 Z " fill="#83CCD7" transform="translate(222,87)"/>
<path d="M0 0 C0.99 0.33 1.98 0.66 3 1 C-0.3 4.3 -3.6 7.6 -7 11 C-7 7.22089522 -6.00296038 6.53893899 -3.5 3.8125 C-2.8503125 3.09707031 -2.200625 2.38164063 -1.53125 1.64453125 C-1.0259375 1.10183594 -0.520625 0.55914062 0 0 Z " fill="#EAC69B" transform="translate(179,112)"/>
<path d="M0 0 C1.32 0 2.64 0 4 0 C4 1.65 4 3.3 4 5 C2.68 5 1.36 5 0 5 C0 3.35 0 1.7 0 0 Z " fill="#39DFDE" transform="translate(361,351)"/>
<path d="M0 0 C0.99 0.33 1.98 0.66 3 1 C0.03 3.97 -2.94 6.94 -6 10 C-6 6.41087588 -5.33563446 5.89142971 -3 3.3125 C-2.443125 2.68988281 -1.88625 2.06726563 -1.3125 1.42578125 C-0.879375 0.95527344 -0.44625 0.48476562 0 0 Z " fill="#16579E" transform="translate(338,248)"/>
<path d="M0 0 C2 3 2 3 2 6 C3.98 6 5.96 6 8 6 C6.68 7.32 5.36 8.64 4 10 C1.2027092 7.93243723 0.97307727 6.85559629 0.3125 3.3125 C0.209375 2.219375 0.10625 1.12625 0 0 Z " fill="#7D7157" transform="translate(189,156)"/>
<path d="M0 0 C1.1875 1.6875 1.1875 1.6875 2 4 C0.6875 6.75 0.6875 6.75 -1 9 C-1.33 9 -1.66 9 -2 9 C-2 6.36 -2 3.72 -2 1 C-1.34 0.67 -0.68 0.34 0 0 Z " fill="#3163A2" transform="translate(361,250)"/>
<path d="M0 0 C0.33 0 0.66 0 1 0 C1 2.97 1 5.94 1 9 C-3 7 -3 7 -4 5 C-3.01 5 -2.02 5 -1 5 C-0.67 3.35 -0.34 1.7 0 0 Z " fill="#143C7A" transform="translate(111,219)"/>
<path d="M0 0 C1.32 0 2.64 0 4 0 C3.67 1.32 3.34 2.64 3 4 C1.68 3.67 0.36 3.34 -1 3 C-0.67 2.01 -0.34 1.02 0 0 Z " fill="#2FCDD0" transform="translate(413,309)"/>
<path d="M0 0 C0.66 0.33 1.32 0.66 2 1 C-1.465 3.97 -1.465 3.97 -5 7 C-5.66 6.34 -6.32 5.68 -7 5 C-4.69 3.35 -2.38 1.7 0 0 Z " fill="#83927B" transform="translate(194,136)"/>
<path d="M0 0 C0.33 0 0.66 0 1 0 C1 1.98 1 3.96 1 6 C-0.65 6.66 -2.3 7.32 -4 8 C-2.68 5.36 -1.36 2.72 0 0 Z " fill="#EECB9C" transform="translate(188,102)"/>
</svg>
